<?xml version="1.0" encoding="us-ascii" standalone="no"?><svg xmlns="http://www.w3.org/2000/svg" xmlns:xlink="http://www.w3.org/1999/xlink" contentStyleType="text/css" height="596px" preserveAspectRatio="none" style="width:966px;height:596px;background:#FFFFFF;" version="1.1" viewBox="0 0 966 596" width="966px" zoomAndPan="magnify"><defs/><g><rect fill="#BFEFFF" height="75.9316" style="stroke:#000000;stroke-width:1.5;" width="790" x="159" y="96.7988"/><rect fill="#FED4BC" height="75.9316" style="stroke:#000000;stroke-width:1.5;" width="790" x="159" y="186.7305"/><rect fill="#CCCCFF" height="75.9316" style="stroke:#000000;stroke-width:1.5;" width="790" x="159" y="276.6621"/><rect fill="#FFCBD2" height="75.9316" style="stroke:#000000;stroke-width:1.5;" width="790" x="159" y="417.2148"/><line style="stroke:#181818;stroke-width:0.5;stroke-dasharray:5.0,5.0;" x1="216" x2="216" y1="36.4883" y2="560.7676"/><line style="stroke:#181818;stroke-width:0.5;stroke-dasharray:5.0,5.0;" x1="895" x2="895" y1="36.4883" y2="560.7676"/><rect fill="#E2E2F0" height="30.4883" rx="2.5" ry="2.5" style="stroke:#181818;stroke-width:0.5;" width="94" x="169" y="5"/><text fill="#000000" font-family="sans-serif" font-size="14" lengthAdjust="spacing" textLength="80" x="176" y="25.5352">gRPC Client</text><rect fill="#E2E2F0" height="30.4883" rx="2.5" ry="2.5" style="stroke:#181818;stroke-width:0.5;" width="94" x="169" y="559.7676"/><text fill="#000000" font-family="sans-serif" font-size="14" lengthAdjust="spacing" textLength="80" x="176" y="580.3027">gRPC Client</text><rect fill="#E2E2F0" height="30.4883" rx="2.5" ry="2.5" style="stroke:#181818;stroke-width:0.5;" width="88" x="851" y="5"/><text fill="#000000" font-family="sans-serif" font-size="14" lengthAdjust="spacing" textLength="74" x="858" y="25.5352">xDS Server</text><rect fill="#E2E2F0" height="30.4883" rx="2.5" ry="2.5" style="stroke:#181818;stroke-width:0.5;" width="88" x="851" y="559.7676"/><text fill="#000000" font-family="sans-serif" font-size="14" lengthAdjust="spacing" textLength="74" x="858" y="580.3027">xDS Server</text><rect fill="#EEEEEE" height="3" style="stroke:#EEEEEE;stroke-width:1.0;" width="959" x="0" y="67.1436"/><line style="stroke:#000000;stroke-width:1.0;" x1="0" x2="959" y1="67.1436" y2="67.1436"/><line style="stroke:#000000;stroke-width:1.0;" x1="0" x2="959" y1="70.1436" y2="70.1436"/><rect fill="#EEEEEE" height="23.3105" style="stroke:#000000;stroke-width:2.0;" width="384" x="287.5" y="56.4883"/><text fill="#000000" font-family="sans-serif" font-size="13" font-weight="bold" lengthAdjust="spacing" textLength="366" x="293.5" y="73.0566">Initialize ADS stream to request and receive resources</text><path d="M159,96.7988 L229,96.7988 L229,104.1094 L219,114.1094 L159,114.1094 L159,96.7988 " fill="#8CBED6" style="stroke:#000000;stroke-width:1.5;"/><rect fill="none" height="75.9316" style="stroke:#000000;stroke-width:1.5;" width="790" x="159" y="96.7988"/><text fill="#000000" font-family="sans-serif" font-size="13" font-weight="bold" lengthAdjust="spacing" textLength="25" x="174" y="110.3672">LDS</text><polygon fill="#181818" points="883,131.4199,893,135.4199,883,139.4199,887,135.4199" style="stroke:#181818;stroke-width:1.0;"/><line style="stroke:#181818;stroke-width:1.0;" x1="216" x2="889" y1="135.4199" y2="135.4199"/><text fill="#000000" font-family="sans-serif" font-size="13" font-weight="bold" lengthAdjust="spacing" textLength="9" x="223" y="130.6777">1</text><text fill="#000000" font-family="sans-serif" font-size="13" lengthAdjust="spacing" textLength="239" x="236" y="130.6777">LDS request for listener "payment-lis"</text><polygon fill="#181818" points="227,160.7305,217,164.7305,227,168.7305,223,164.7305" style="stroke:#181818;stroke-width:1.0;"/><line style="stroke:#181818;stroke-width:1.0;" x1="221" x2="894" y1="164.7305" y2="164.7305"/><text fill="#000000" font-family="sans-serif" font-size="13" font-weight="bold" lengthAdjust="spacing" textLength="9" x="233" y="159.9883">2</text><text fill="#000000" font-family="sans-serif" font-size="13" lengthAdjust="spacing" textLength="642" x="246" y="159.9883">LDS response with API Listener "payment-lis". The resource must contain a Route for the RDS request.</text><path d="M159,186.7305 L230,186.7305 L230,194.041 L220,204.041 L159,204.041 L159,186.7305 " fill="#FFC57D" style="stroke:#000000;stroke-width:1.5;"/><rect fill="none" height="75.9316" style="stroke:#000000;stroke-width:1.5;" width="790" x="159" y="186.7305"/><text fill="#000000" font-family="sans-serif" font-size="13" font-weight="bold" lengthAdjust="spacing" textLength="26" x="174" y="200.2988">RDS</text><polygon fill="#181818" points="883,221.3516,893,225.3516,883,229.3516,887,225.3516" style="stroke:#181818;stroke-width:1.0;"/><line style="stroke:#181818;stroke-width:1.0;" x1="216" x2="889" y1="225.3516" y2="225.3516"/><text fill="#000000" font-family="sans-serif" font-size="13" font-weight="bold" lengthAdjust="spacing" textLength="9" x="223" y="220.6094">3</text><text fill="#000000" font-family="sans-serif" font-size="13" lengthAdjust="spacing" textLength="475" x="236" y="220.6094">RDS request with the Route name provided in the previous listener resource</text><polygon fill="#181818" points="227,250.6621,217,254.6621,227,258.6621,223,254.6621" style="stroke:#181818;stroke-width:1.0;"/><line style="stroke:#181818;stroke-width:1.0;" x1="221" x2="894" y1="254.6621" y2="254.6621"/><text fill="#000000" font-family="sans-serif" font-size="13" font-weight="bold" lengthAdjust="spacing" textLength="9" x="233" y="249.9199">4</text><text fill="#000000" font-family="sans-serif" font-size="13" lengthAdjust="spacing" textLength="204" x="246" y="249.9199">RDS response with Cluster name</text><path d="M159,276.6621 L230,276.6621 L230,283.9727 L220,293.9727 L159,293.9727 L159,276.6621 " fill="#9696FD" style="stroke:#000000;stroke-width:1.5;"/><rect fill="none" height="75.9316" style="stroke:#000000;stroke-width:1.5;" width="790" x="159" y="276.6621"/><text fill="#000000" font-family="sans-serif" font-size="13" font-weight="bold" lengthAdjust="spacing" textLength="26" x="174" y="290.2305">CDS</text><polygon fill="#181818" points="883,311.2832,893,315.2832,883,319.2832,887,315.2832" style="stroke:#181818;stroke-width:1.0;"/><line style="stroke:#181818;stroke-width:1.0;" x1="216" x2="889" y1="315.2832" y2="315.2832"/><text fill="#000000" font-family="sans-serif" font-size="13" font-weight="bold" lengthAdjust="spacing" textLength="9" x="223" y="310.541">5</text><text fill="#000000" font-family="sans-serif" font-size="13" lengthAdjust="spacing" textLength="454" x="236" y="310.541">CDS request based on the cluster name obtained from the RDS response</text><polygon fill="#181818" points="227,340.5938,217,344.5938,227,348.5938,223,344.5938" style="stroke:#181818;stroke-width:1.0;"/><line style="stroke:#181818;stroke-width:1.0;" x1="221" x2="894" y1="344.5938" y2="344.5938"/><text fill="#000000" font-family="sans-serif" font-size="13" font-weight="bold" lengthAdjust="spacing" textLength="9" x="233" y="339.8516">6</text><text fill="#000000" font-family="sans-serif" font-size="13" lengthAdjust="spacing" textLength="548" x="246" y="339.8516">CDS response containing cluster type, `eds_cluster_config`, and load balancing policy</text><path d="M5,364.5938 L5,404.5938 L427,404.5938 L427,374.5938 L417,364.5938 L5,364.5938 " fill="#FEFFDD" style="stroke:#181818;stroke-width:0.5;"/><path d="M417,364.5938 L417,374.5938 L427,374.5938 L417,364.5938 " fill="#FEFFDD" style="stroke:#181818;stroke-width:0.5;"/><text fill="#000000" font-family="sans-serif" font-size="13" lengthAdjust="spacing" textLength="235" x="11" y="382.1621">The gRPC Client uses the information</text><text fill="#000000" font-family="sans-serif" font-size="13" lengthAdjust="spacing" textLength="401" x="11" y="397.4727">from the CDS resource to create a load balancing configuration.</text><path d="M159,417.2148 L229,417.2148 L229,424.5254 L219,434.5254 L159,434.5254 L159,417.2148 " fill="#FFA7B4" style="stroke:#000000;stroke-width:1.5;"/><rect fill="none" height="75.9316" style="stroke:#000000;stroke-width:1.5;" width="790" x="159" y="417.2148"/><text fill="#000000" font-family="sans-serif" font-size="13" font-weight="bold" lengthAdjust="spacing" textLength="25" x="174" y="430.7832">EDS</text><polygon fill="#181818" points="883,451.8359,893,455.8359,883,459.8359,887,455.8359" style="stroke:#181818;stroke-width:1.0;"/><line style="stroke:#181818;stroke-width:1.0;" x1="216" x2="889" y1="455.8359" y2="455.8359"/><text fill="#000000" font-family="sans-serif" font-size="13" font-weight="bold" lengthAdjust="spacing" textLength="9" x="223" y="451.0938">7</text><text fill="#000000" font-family="sans-serif" font-size="13" lengthAdjust="spacing" textLength="379" x="236" y="451.0938">EDS request using the cluster name or `eds_cluster_config`</text><polygon fill="#181818" points="227,481.1465,217,485.1465,227,489.1465,223,485.1465" style="stroke:#181818;stroke-width:1.0;"/><line style="stroke:#181818;stroke-width:1.0;" x1="221" x2="894" y1="485.1465" y2="485.1465"/><text fill="#000000" font-family="sans-serif" font-size="13" font-weight="bold" lengthAdjust="spacing" textLength="9" x="233" y="480.4043">8</text><text fill="#000000" font-family="sans-serif" font-size="13" lengthAdjust="spacing" textLength="417" x="246" y="480.4043">EDS response with a list of destination endpoints for gRPC servers</text><path d="M92,505.1465 L92,545.1465 L340,545.1465 L340,515.1465 L330,505.1465 L92,505.1465 " fill="#FEFFDD" style="stroke:#181818;stroke-width:0.5;"/><path d="M330,505.1465 L330,515.1465 L340,515.1465 L330,505.1465 " fill="#FEFFDD" style="stroke:#181818;stroke-width:0.5;"/><text fill="#000000" font-family="sans-serif" font-size="13" lengthAdjust="spacing" textLength="227" x="98" y="522.7148">The gRPC Client selects an endpoint</text><text fill="#000000" font-family="sans-serif" font-size="13" lengthAdjust="spacing" textLength="190" x="98" y="538.0254">to connect to the gRPC server.</text><!--SRC=[ZPDFRnen4CNl-ob6SEWbW5Ibf8bAfMZ38L8E4VIUUEtnOcdNTls7XdxwZht0cYI7SW7MCsz-VlFsoou4w-yM2zin7MBVpRdf5nv_HzGSPqAnrh6-iim5nPMb6fYqc-SQwawX3XDW7bf-UVxsi8KjkZswVFmcVCLYC3hs3RggMgtWKQkWMAV-8jnJiGyEMG_1W4k3VG2c1VtcgFP8tzv4nz73QbMrpaGx_SuR54kODXAbbF3qiArQ3hEVQTPT-diMaiP1ftn0ZGucbXrwefxHaqb5jQcbvQSERuts27zKsC7zyoCyVTetXr-x4GhwI5EuqO4f3Gms9WRCKmDLRKQIUOLQL4T-AVct6m5JYUAwuQciv2-w1fWibOKrwn6iCtibK01DJ4VMuLwPwCUBdkYIwezPgLhUiUw8dQgJQ4btkxnTIgBZz25twqkwkg1hc2SCCs3mGWvCamoXG-bCNtWnp2-vwfBhQAJIxLak72nUmIiA_t9yz49LKhMlLpacdM62G2Y-FBLPqob-6AwZ3LbcA8SfecbhHN8XUafK0bEQrjMpe8okphH7gc7754nE2IKnzdxSW19TRiyxXZHrN3IxQQuXBRmHNs5zQUMwi3Bw9FVHH_VfrKi3rnyMot8Im4WG9ArqXWDYiqRfu7CyinK-lwN-Fzpos26dLZRgLCaMepKzJmw5KySWEdhn3m00]--></g></svg>